#!OML:ASF Y:\EmotionMaleHayes\Project 1\Capture day 1\Session 1\Male1.ASF
:FULLY-SPECIFIED
:DEGREES
1440
root -29.5224 17.0656 -0.0542785 393.475 86.5925 -327.382
lowerback 6.86105 1.87731 -4.87058
upperback 2.25134 2.2109 -1.54508
thorax -1.63694 1.13327 0.954242
lowerneck -21.5165 2.07627 4.64123
upperneck 23.7798 2.16901 -2.35557
head 11.3861 1.16754 -1.28266
rclavicle 2.88238e-015 -3.93594e-014
rhumerus -38.3983 7.71321 -89.9956
rradius 44.9494
rwrist -8.07832
rhand -13.7496 -31.3412
rfingers 7.12502
rthumb 12.3705 -60.9552
lclavicle 2.88238e-015 -3.93594e-014
lhumerus -38.7023 -10.635 88.6877
lradius 37.4924
lwrist 12.5586
lhand -25.5051 -20.7545
lfingers 7.12502
lthumb 1.02369 9.22281
rfemur 6.4946 -4.25871 14.059
rtibia 12.3268
rfoot -23.1616 -13.2785
rtoes -4.98122
lfemur 4.32173 4.01569 -21.2821
ltibia 6.87419
lfoot -14.0159 5.53813
ltoes 7.47668
1441
root -29.5293 17.067 -0.0540397 399.57 86.2232 -321.348
lowerback 6.69995 1.8876 -5.47191
upperback 2.30185 2.20088 -1.65574
thorax -1.51066 1.12665 1.18226
lowerneck -21.5168 2.10897 4.77951
upperneck 23.6557 2.20533 -2.51449
head 11.3445 1.17336 -1.35816
rclavicle -1.20265e-014 7.15625e-015
rhumerus -38.1468 7.81961 -89.987
rradius 44.665
rwrist -8.0184
rhand -13.716 -31.6315
rfingers 7.12502
rthumb 12.4029 -61.2435
lclavicle -1.20265e-014 7.15625e-015
lhumerus -38.4065 -10.5937 88.5766
lradius 37.6742
lwrist 12.7519
lhand -24.5863 -20.9778
lfingers 7.12502
lthumb 1.91112 8.99334
rfemur 6.29464 -4.53784 13.2981
rtibia 12.5394
rfoot -23.1457 -12.9769
rtoes -4.57778
lfemur 4.29955 4.11161 -21.8978
ltibia 6.6748
lfoot -13.9681 5.31561
ltoes 8.96596
1442
root -29.5379 17.0675 -0.0531472 402.719 85.9552 -318.195
lowerback 6.71444 1.91173 -5.84981
upperback 2.3035 2.20901 -1.73055
thorax -1.52724 1.13196 1.3141
lowerneck -21.4793 2.12076 4.93859
upperneck 23.5953 2.22624 -2.72724
head 11.3199 1.16908 -1.45969
rclavicle -7.95139e-015 -2.06736e-014
rhumerus -38.2787 7.79257 -89.9735
rradius 44.6957
rwrist -7.99301
rhand -13.728 -31.7624
rfingers 7.12502
rthumb 12.3914 -61.3751
lclavicle -7.95139e-015 -2.06736e-014
lhumerus -38.3595 -10.8758 88.7406
lradius 37.744
lwrist 11.9335
lhand -24.703 -20.8325
lfingers 7.12502
lthumb 1.79846 9.13971
rfemur 6.16426 -4.69336 12.8112
rtibia 12.7286
rfoot -23.1637 -12.8156
rtoes -4.60999
lfemur 4.36346 4.24104 -22.2749
ltibia 6.45869
lfoot -13.8421 5.14062
ltoes 9.59496
1443
root -29.5497 17.0668 -0.0532564 402.403 86.0005 -318.467
lowerback 6.81471 1.89738 -5.78563
upperback 2.3043 2.1866 -1.69719
thorax -1.57981 1.12182 1.31141
lowerneck -21.5018 2.13069 5.00376
upperneck 23.6353 2.26347 -2.88808
head 11.3438 1.17138 -1.52411
rclavicle -1.39149e-015 -2.10712e-014
rhumerus -38.3625 7.90968 -89.9731
rradius 44.6634
rwrist -8.10373
rhand -13.8267 -31.6895
rfingers 7.12502
rthumb 12.2962 -61.308
lclavicle -1.39149e-015 -2.10712e-014
lhumerus -38.3339 -11.0966 88.8552
lradius 37.9784
lwrist 11.524
lhand -24.4523 -20.4982
lfingers 7.12502
lthumb 2.04056 9.47183
rfemur 6.11639 -4.69489 12.8562
rtibia 12.8273
rfoot -23.2728 -12.8642
rtoes -5.38802
lfemur 4.40011 4.60278 -22.087
ltibia 6.37346
lfoot -13.5671 4.77837
ltoes 9.18892
1444
root -29.5633 17.064 -0.0532695 399.027 86.1704 -321.845
lowerback 6.87154 1.86812 -5.47749
upperback 2.30542 2.16301 -1.61413
thorax -1.60176 1.10959 1.22587
lowerneck -21.5784 2.17338 5.05479
upperneck 23.6523 2.30958 -2.91828
head 11.3682 1.19199 -1.53627
rclavicle 1.89839e-014 -2.5842e-014
rhumerus -38.39 8.09629 -90.0267
rradius 44.6721
rwrist -8.2084
rhand -13.9802 -31.7542
rfingers 7.12502
rthumb 12.1482 -61.3815
lclavicle 1.89839e-014 -2.5842e-014
lhumerus -38.0384 -11.2628 88.825
lradius 38.0708
lwrist 12.1866
lhand -23.7191 -20.1706
lfingers 7.12502
lthumb 2.74861 9.79147
rfemur 5.98059 -4.57949 13.2482
rtibia 13.0561
rfoot -23.6424 -12.8488
rtoes -5.01481
lfemur 4.33447 4.92734 -21.5965
ltibia 6.39361
lfoot -13.3586 4.40666
ltoes 9.42853
1445
root -29.5742 17.061 -0.0539848 395.057 86.2733 -325.824
lowerback 6.83537 1.87957 -5.26358
upperback 2.3511 2.19721 -1.49147
thorax -1.53413 1.12361 1.23245
lowerneck -21.6484 2.20265 5.12979
upperneck 23.5966 2.3389 -2.99846
head 11.3641 1.19943 -1.57322
rclavicle 1.08338e-014 -4.37326e-015
rhumerus -38.3652 8.13792 -89.9461
rradius 44.6734
rwrist -8.11675
rhand -13.9477 -31.8811
rfingers 7.12502
rthumb 12.1795 -61.5065
lclavicle 1.08338e-014 -4.37326e-015
lhumerus -37.6708 -12.013 89.1694
lradius 37.6295
lwrist 12.2448
lhand -24.3543 -20.4325
lfingers 7.12502
lthumb 2.13518 9.53661
rfemur 5.81694 -4.42997 13.6249
rtibia 13.5167
rfoot -24.2767 -12.5423
rtoes -3.08322
lfemur 4.32314 5.00817 -21.2095
ltibia 6.34366
lfoot -13.272 4.27734
ltoes 9.21766
1446
root -29.582 17.0598 -0.054988 392.133 86.3456 -328.687
lowerback 6.90882 1.89853 -5.04975
upperback 2.37136 2.23263 -1.44536
thorax -1.55057 1.14121 1.15579
lowerneck -21.6085 2.19904 5.24807
upperneck 23.5471 2.32487 -3.11175
head 11.3401 1.18891 -1.63689
rclavicle 1.88845e-015 -1.51076e-014
rhumerus -38.4484 8.06802 -89.9174
rradius 44.6489
rwrist -7.96693
rhand -13.7313 -31.8777
rfingers 7.12502
rthumb 12.3882 -61.4906
lclavicle 1.88845e-015 -1.51076e-014
lhumerus -37.565 -12.6603 89.3742
lradius 37.6362
lwrist 12.3896
lhand -24.5356 -20.9511
lfingers 7.12502
lthumb 1.96007 9.01965
rfemur 5.78611 -4.31457 13.8957
rtibia 13.3271
rfoot -23.8844 -12.9696
rtoes -4.57307
lfemur 4.42047 5.08577 -20.9163
ltibia 6.28149
lfoot -13.2011 4.22962
ltoes 8.17
1447
root -29.5877 17.0555 -0.0563165 390.147 86.2956 -330.672
lowerback 6.88048 1.93108 -5.00103
upperback 2.385 2.2816 -1.40475
thorax -1.5235 1.16456 1.16751
lowerneck -21.5796 2.20211 5.33843
upperneck 23.4769 2.3252 -3.21529
head 11.3106 1.18298 -1.68977
rclavicle -1.63997e-015 -7.55382e-015
rhumerus -38.5353 8.13801 -89.9016
rradius 44.7111
rwrist -8.00385
rhand -13.5734 -31.893
rfingers 7.12502
rthumb 12.5404 -61.4967
lclavicle -1.63997e-015 -7.55382e-015
lhumerus -37.5635 -12.9209 89.4702
lradius 37.9669
lwrist 12.5923
lhand -24.2569 -21.3938
lfingers 7.12502
lthumb 2.22928 8.57425
rfemur 5.66057 -4.20242 14.0065
rtibia 13.3936
rfoot -23.8186 -13.116
rtoes -4.56075
lfemur 4.50609 4.96129 -20.8306
ltibia 6.08903
lfoot -13.1349 4.41848
ltoes 8.51267
1448
root -29.5939 17.0563 -0.0592056 390.558 86.1426 -330.148
lowerback 7.00009 1.97357 -5.12405
upperback 2.42134 2.32511 -1.41271
thorax -1.55882 1.18709 1.22061
lowerneck -21.6049 2.20314 5.2698
upperneck 23.462 2.32008 -3.11744
head 11.3075 1.18636 -1.64286
rclavicle 1.00883e-014 -1.11319e-014
rhumerus -38.5906 8.23962 -89.8821
rradius 44.7219
rwrist -8.12775
rhand -13.5488 -32.023
rfingers 7.12502
rthumb 12.5641 -61.6252
lclavicle 1.00883e-014 -1.11319e-014
lhumerus -37.5486 -13.2451 89.607
lradius 38.2992
lwrist 12.7767
lhand -24.0873 -21.3282
lfingers 7.12502
lthumb 2.39308 8.63811
rfemur 5.60726 -4.19733 13.8246
rtibia 13.724
rfoot -23.9899 -12.9217
rtoes -4.19993
lfemur 4.68784 4.90045 -20.9897
ltibia 5.92668
lfoot -13.1191 4.45625
ltoes 9.7589
1449
root -29.5988 17.0525 -0.0648686 391.72 86.0614 -328.964
lowerback 7.02884 1.98959 -5.17815
upperback 2.40761 2.34009 -1.4351
thorax -1.5909 1.19551 1.225
lowerneck -21.5086 2.1883 5.16738
upperneck 23.4354 2.30808 -3.00124
head 11.2756 1.18768 -1.5849
rclavicle 1.29707e-014 -1.19271e-014
rhumerus -38.7159 8.26743 -89.8289
rradius 44.6654
rwrist -8.14119
rhand -13.518 -31.9376
rfingers 7.12502
rthumb 12.5938 -61.538
lclavicle 1.29707e-014 -1.19271e-014
lhumerus -37.5931 -13.5896 89.8183
lradius 38.5969
lwrist 12.7028
lhand -24.3747 -21.134
lfingers 7.12502
lthumb 2.11546 8.83526
rfemur 5.42165 -4.31756 13.6165
rtibia 14.1374
rfoot -24.1759 -12.7806
rtoes -4.35409
lfemur 4.72153 5.03747 -21.1236
ltibia 5.88826
lfoot -13.1176 4.28784
ltoes 9.94076
1450
root -29.6054 17.0467 -0.0702059 395.221 85.9026 -325.468
lowerback 7.01237 1.98822 -5.44126
upperback 2.3905 2.32107 -1.50114
thorax -1.60498 1.18704 1.30524
lowerneck -21.2974 2.18626 5.15383
upperneck 23.3207 2.3133 -2.97787
head 11.1918 1.19292 -1.5731
rclavicle 8.34896e-015 -6.75868e-015
rhumerus -38.8736 8.32688 -89.7893
rradius 44.6852
rwrist -8.11985
rhand -13.5443 -31.6375
rfingers 7.12502
rthumb 12.5684 -61.2395
lclavicle 8.34896e-015 -6.75868e-015
lhumerus -37.5585 -13.6605 89.9305
lradius 38.7722
lwrist 12.645
lhand -24.4296 -21.1548
lfingers 7.12502
lthumb 2.06249 8.81493
rfemur 5.14058 -4.62727 13.1359
rtibia 14.5778
rfoot -24.2398 -12.7756
rtoes -5.77196
lfemur 4.71311 5.19903 -21.4861
ltibia 5.85752
lfoot -13.0732 4.16628
ltoes 9.33637
